<?xml version="1.0" encoding="UTF-8"?>
<svg xmlns="http://www.w3.org/2000/svg" viewBox="0 0 600 600" role="img" aria-label="Полевая нежность">
  <defs>
    <radialGradient id="bg" cx="50%" cy="35%" r="65%">
      <stop offset="0%" stop-color="#fff8f4"/>
      <stop offset="100%" stop-color="#f6e3d9"/>
    </radialGradient>
  </defs>
  <rect width="600" height="600" fill="url(#bg)"/>
  
    <g opacity="0.85">
      <ellipse cx="235.0" cy="295.0" rx="65" ry="32" fill="#b8d4a8" transform="rotate(-25 235.0 295.0)"/>
      <ellipse cx="365.0" cy="295.0" rx="65" ry="32" fill="#b8d4a8" transform="rotate(25 365.0 295.0)"/>
      <ellipse cx="280.0" cy="225.0" rx="42" ry="20" fill="#b8d4a8" transform="rotate(-55 280.0 225.0)"/>
      <ellipse cx="320.0" cy="225.0" rx="42" ry="20" fill="#b8d4a8" transform="rotate(55 320.0 225.0)"/>
    </g>
    
<ellipse cx="279.0" cy="250.0" rx="19.2" ry="10.8" fill="#fdebf0" transform="rotate(0.0 279.0 250.0)"/>
<ellipse cx="267.6" cy="277.6" rx="19.2" ry="10.8" fill="#fdebf0" transform="rotate(45.0 267.6 277.6)"/>
<ellipse cx="240.0" cy="289.0" rx="19.2" ry="10.8" fill="#fdebf0" transform="rotate(90.0 240.0 289.0)"/>
<ellipse cx="212.4" cy="277.6" rx="19.2" ry="10.8" fill="#fdebf0" transform="rotate(135.0 212.4 277.6)"/>
<ellipse cx="201.0" cy="250.0" rx="19.2" ry="10.8" fill="#fdebf0" transform="rotate(180.0 201.0 250.0)"/>
<ellipse cx="212.4" cy="222.4" rx="19.2" ry="10.8" fill="#fdebf0" transform="rotate(225.0 212.4 222.4)"/>
<ellipse cx="240.0" cy="211.0" rx="19.2" ry="10.8" fill="#fdebf0" transform="rotate(270.0 240.0 211.0)"/>
<ellipse cx="267.6" cy="222.4" rx="19.2" ry="10.8" fill="#fdebf0" transform="rotate(315.0 267.6 222.4)"/>
<circle cx="240.0" cy="250.0" r="19.2" fill="#c97f93"/>
<ellipse cx="399.0" cy="250.0" rx="19.2" ry="10.8" fill="#fdebf0" transform="rotate(0.0 399.0 250.0)"/>
<ellipse cx="387.6" cy="277.6" rx="19.2" ry="10.8" fill="#fdebf0" transform="rotate(45.0 387.6 277.6)"/>
<ellipse cx="360.0" cy="289.0" rx="19.2" ry="10.8" fill="#fdebf0" transform="rotate(90.0 360.0 289.0)"/>
<ellipse cx="332.4" cy="277.6" rx="19.2" ry="10.8" fill="#fdebf0" transform="rotate(135.0 332.4 277.6)"/>
<ellipse cx="321.0" cy="250.0" rx="19.2" ry="10.8" fill="#fdebf0" transform="rotate(180.0 321.0 250.0)"/>
<ellipse cx="332.4" cy="222.4" rx="19.2" ry="10.8" fill="#fdebf0" transform="rotate(225.0 332.4 222.4)"/>
<ellipse cx="360.0" cy="211.0" rx="19.2" ry="10.8" fill="#fdebf0" transform="rotate(270.0 360.0 211.0)"/>
<ellipse cx="387.6" cy="222.4" rx="19.2" ry="10.8" fill="#fdebf0" transform="rotate(315.0 387.6 222.4)"/>
<circle cx="360.0" cy="250.0" r="19.2" fill="#c97f93"/>
<ellipse cx="345.5" cy="280.0" rx="22.4" ry="12.6" fill="#ffffff" transform="rotate(0.0 345.5 280.0)"/>
<ellipse cx="332.2" cy="312.2" rx="22.4" ry="12.6" fill="#ffffff" transform="rotate(45.0 332.2 312.2)"/>
<ellipse cx="300.0" cy="325.5" rx="22.4" ry="12.6" fill="#ffffff" transform="rotate(90.0 300.0 325.5)"/>
<ellipse cx="267.8" cy="312.2" rx="22.4" ry="12.6" fill="#ffffff" transform="rotate(135.0 267.8 312.2)"/>
<ellipse cx="254.5" cy="280.0" rx="22.4" ry="12.6" fill="#ffffff" transform="rotate(180.0 254.5 280.0)"/>
<ellipse cx="267.8" cy="247.8" rx="22.4" ry="12.6" fill="#ffffff" transform="rotate(225.0 267.8 247.8)"/>
<ellipse cx="300.0" cy="234.5" rx="22.4" ry="12.6" fill="#ffffff" transform="rotate(270.0 300.0 234.5)"/>
<ellipse cx="332.2" cy="247.8" rx="22.4" ry="12.6" fill="#ffffff" transform="rotate(315.0 332.2 247.8)"/>
<circle cx="300.0" cy="280.0" r="22.4" fill="#c97f93"/>
<ellipse cx="251.2" cy="320.0" rx="15.4" ry="8.6" fill="#fdebf0" transform="rotate(0.0 251.2 320.0)"/>
<ellipse cx="242.1" cy="342.1" rx="15.4" ry="8.6" fill="#fdebf0" transform="rotate(45.0 242.1 342.1)"/>
<ellipse cx="220.0" cy="351.2" rx="15.4" ry="8.6" fill="#fdebf0" transform="rotate(90.0 220.0 351.2)"/>
<ellipse cx="197.9" cy="342.1" rx="15.4" ry="8.6" fill="#fdebf0" transform="rotate(135.0 197.9 342.1)"/>
<ellipse cx="188.8" cy="320.0" rx="15.4" ry="8.6" fill="#fdebf0" transform="rotate(180.0 188.8 320.0)"/>
<ellipse cx="197.9" cy="297.9" rx="15.4" ry="8.6" fill="#fdebf0" transform="rotate(225.0 197.9 297.9)"/>
<ellipse cx="220.0" cy="288.8" rx="15.4" ry="8.6" fill="#fdebf0" transform="rotate(270.0 220.0 288.8)"/>
<ellipse cx="242.1" cy="297.9" rx="15.4" ry="8.6" fill="#fdebf0" transform="rotate(315.0 242.1 297.9)"/>
<circle cx="220.0" cy="320.0" r="15.4" fill="#c97f93"/>
<ellipse cx="411.2" cy="320.0" rx="15.4" ry="8.6" fill="#fdebf0" transform="rotate(0.0 411.2 320.0)"/>
<ellipse cx="402.1" cy="342.1" rx="15.4" ry="8.6" fill="#fdebf0" transform="rotate(45.0 402.1 342.1)"/>
<ellipse cx="380.0" cy="351.2" rx="15.4" ry="8.6" fill="#fdebf0" transform="rotate(90.0 380.0 351.2)"/>
<ellipse cx="357.9" cy="342.1" rx="15.4" ry="8.6" fill="#fdebf0" transform="rotate(135.0 357.9 342.1)"/>
<ellipse cx="348.8" cy="320.0" rx="15.4" ry="8.6" fill="#fdebf0" transform="rotate(180.0 348.8 320.0)"/>
<ellipse cx="357.9" cy="297.9" rx="15.4" ry="8.6" fill="#fdebf0" transform="rotate(225.0 357.9 297.9)"/>
<ellipse cx="380.0" cy="288.8" rx="15.4" ry="8.6" fill="#fdebf0" transform="rotate(270.0 380.0 288.8)"/>
<ellipse cx="402.1" cy="297.9" rx="15.4" ry="8.6" fill="#fdebf0" transform="rotate(315.0 402.1 297.9)"/>
<circle cx="380.0" cy="320.0" r="15.4" fill="#c97f93"/>
<ellipse cx="195" cy="230" rx="15" ry="35" fill="#e3c8a4" opacity="0.85"/>
<rect x="192" y="230" width="6" height="180" fill="#b89472" opacity="0.6"/>
<ellipse cx="405" cy="230" rx="15" ry="35" fill="#e3c8a4" opacity="0.85"/>
<rect x="402" y="230" width="6" height="180" fill="#b89472" opacity="0.6"/>
<ellipse cx="300" cy="200" rx="15" ry="35" fill="#e3c8a4" opacity="0.85"/>
<rect x="297" y="200" width="6" height="180" fill="#b89472" opacity="0.6"/>
    <g>
      <path d="M 200 410 Q 300 370 400 410 L 430 590 Q 300 605 170 590 Z" fill="#f0dfd0"/>
      <path d="M 200 410 Q 300 370 400 410 L 400 430 Q 300 400 200 430 Z" fill="#b89472" opacity="0.3"/>
      <rect x="285" y="420" width="30" height="170" fill="#b89472" opacity="0.45"/>
    </g>
    
</svg>
